<svg xmlns="http://www.w3.org/2000/svg" width="31.407" height="40.247" viewBox="0 0 31.407 40.247"><defs><style>.a{fill:#2ec4b6;}</style></defs><g transform="translate(-56.233)"><path class="a" d="M70.569.125a1.179,1.179,0,0,0-1.055,0,5.759,5.759,0,0,0-2,1.645,5.758,5.758,0,0,0-2-1.645,1.179,1.179,0,0,0-1.055,0,5.759,5.759,0,0,0-2,1.645,5.758,5.758,0,0,0-2-1.645,1.179,1.179,0,0,0-1.055,0,5.718,5.718,0,0,0-3.178,5.141v8.543a6.242,6.242,0,0,0,5.052,6.119V36.543a3.705,3.705,0,1,0,7.41,0V19.928a6.242,6.242,0,0,0,5.052-6.119V5.266A5.718,5.718,0,0,0,70.569.125Zm.819,13.684a3.877,3.877,0,0,1-3.873,3.873,1.179,1.179,0,0,0-1.179,1.179V36.543a1.347,1.347,0,1,1-2.694,0V18.861a1.179,1.179,0,0,0-1.179-1.179,3.877,3.877,0,0,1-3.873-3.873V5.266A3.369,3.369,0,0,1,59.938,2.56a3.369,3.369,0,0,1,1.347,2.706V10.02a1.179,1.179,0,1,0,2.358,0V5.266A3.369,3.369,0,0,1,64.99,2.56a3.369,3.369,0,0,1,1.347,2.706V10.02a1.179,1.179,0,1,0,2.358,0V5.266A3.369,3.369,0,0,1,70.042,2.56a3.369,3.369,0,0,1,1.347,2.706v8.543Z" transform="translate(0 0)"/><path class="a" d="M314.479,0A1.179,1.179,0,0,0,313.3,1.179V36.542a3.705,3.705,0,1,0,7.41,0V28.881h2.61A1.179,1.179,0,0,0,324.5,27.7V10.019A10.013,10.013,0,0,0,314.479,0Zm7.662,26.522h-2.61a1.179,1.179,0,0,0-1.179,1.179v8.841a1.347,1.347,0,1,1-2.694,0V2.448a7.659,7.659,0,0,1,6.483,7.571v16.5Z" transform="translate(-236.859)"/></g></svg>